<svg width="579" height="64" viewBox="0 0 579 64" fill="none" xmlns="http://www.w3.org/2000/svg">
<path d="M44.2175 52.558C42.7708 52.558 41.6341 52.2067 40.8075 51.504C39.9808 50.8013 39.3608 50.016 38.9475 49.148C38.5755 48.2387 38.3068 47.4947 38.1415 46.916L28.2215 13.932C28.0561 13.3947 27.7668 12.7747 27.3535 12.072C26.9401 11.328 26.1548 10.956 24.9975 10.956C24.4188 10.956 23.7988 11.08 23.1375 11.328C22.5175 11.576 21.9181 11.9893 21.3395 12.568C21.0501 12.2373 20.8228 11.886 20.6575 11.514C20.5335 11.142 20.4508 10.8113 20.4095 10.522C21.0708 9.69533 22.0835 8.99267 23.4475 8.414C24.8115 7.83533 26.1755 7.546 27.5395 7.546C28.9861 7.546 30.1228 7.856 30.9495 8.476C31.7761 9.096 32.3961 9.86066 32.8095 10.77C33.2228 11.638 33.5535 12.4647 33.8015 13.25L43.7215 46.234C43.8042 46.5233 43.9282 46.8953 44.0935 47.35C44.3002 47.8047 44.5895 48.2387 44.9615 48.652C45.3748 49.024 45.8915 49.21 46.5115 49.21C46.9248 49.21 47.3795 49.1067 47.8755 48.9C48.3715 48.6933 48.9088 48.3213 49.4875 47.784C50.0248 48.4453 50.3348 49.1273 50.4175 49.83C49.7561 50.6153 48.8468 51.2767 47.6895 51.814C46.5322 52.31 45.3748 52.558 44.2175 52.558ZM18.8595 52.248C18.7768 51.9173 18.7148 51.504 18.6735 51.008C18.6321 50.512 18.6115 50.0367 18.6115 49.582C19.3141 49.4993 19.7895 49.334 20.0375 49.086C20.2855 48.838 20.6161 48.2387 21.0295 47.288C21.3188 46.6267 21.7115 45.6967 22.2075 44.498C22.7035 43.2993 23.3648 41.6667 24.1915 39.6C25.0181 37.492 26.0308 34.8467 27.2295 31.664C28.4695 28.44 29.9575 24.4927 31.6935 19.822L33.8635 21C32.6235 25.2987 31.5281 29.1427 30.5775 32.532C29.6268 35.9213 28.7381 39.166 27.9115 42.266C27.1261 45.366 26.3201 48.6107 25.4935 52C24.6255 52 23.6128 52 22.4555 52C21.3395 52.0413 20.1408 52.124 18.8595 52.248Z" fill="#F6F6F6"/>
<path d="M92.3381 28.46C93.9221 28.46 95.3261 28.856 96.5501 29.648C97.7741 30.44 98.7221 31.556 99.3941 32.996C100.066 34.412 100.402 36.056 100.402 37.928C100.402 39.8 100.066 41.444 99.3941 42.86C98.7221 44.252 97.7741 45.332 96.5501 46.1C95.3501 46.868 93.9461 47.252 92.3381 47.252C90.9221 47.252 89.6861 46.94 88.6301 46.316C87.5741 45.692 86.7701 44.804 86.2181 43.652V54.776H83.3021V33.968C83.3021 32.096 83.2061 30.404 83.0141 28.892H85.7861L86.0741 32.384C86.5781 31.136 87.3701 30.176 88.4501 29.504C89.5541 28.808 90.8501 28.46 92.3381 28.46ZM91.7981 44.84C93.5741 44.84 94.9421 44.24 95.9021 43.04C96.8861 41.84 97.3781 40.136 97.3781 37.928C97.3781 35.72 96.8861 34.004 95.9021 32.78C94.9181 31.532 93.5501 30.908 91.7981 30.908C89.9981 30.908 88.6181 31.508 87.6581 32.708C86.6981 33.908 86.2181 35.624 86.2181 37.856C86.2181 40.088 86.6981 41.816 87.6581 43.04C88.6181 44.24 89.9981 44.84 91.7981 44.84ZM120.836 28.892V47H117.956V43.724C117.428 44.852 116.624 45.728 115.544 46.352C114.488 46.952 113.252 47.252 111.836 47.252C110.228 47.252 108.812 46.868 107.588 46.1C106.388 45.332 105.452 44.252 104.78 42.86C104.132 41.444 103.808 39.8 103.808 37.928C103.808 36.056 104.144 34.412 104.816 32.996C105.488 31.556 106.424 30.44 107.624 29.648C108.848 28.856 110.252 28.46 111.836 28.46C113.252 28.46 114.488 28.772 115.544 29.396C116.6 30.02 117.404 30.896 117.956 32.024V28.892H120.836ZM112.412 44.84C114.188 44.84 115.556 44.24 116.516 43.04C117.476 41.816 117.956 40.088 117.956 37.856C117.956 35.624 117.476 33.908 116.516 32.708C115.556 31.508 114.188 30.908 112.412 30.908C110.636 30.908 109.244 31.532 108.236 32.78C107.252 34.004 106.76 35.72 106.76 37.928C106.76 40.136 107.252 41.84 108.236 43.04C109.22 44.24 110.612 44.84 112.412 44.84ZM134.898 28.46C135.498 28.46 136.05 28.532 136.554 28.676L136.482 31.34C135.93 31.148 135.294 31.052 134.574 31.052C132.822 31.052 131.514 31.604 130.65 32.708C129.81 33.788 129.39 35.108 129.39 36.668V47H126.474V33.968C126.474 32.096 126.378 30.404 126.186 28.892H128.958L129.246 32.24C129.702 31.016 130.434 30.08 131.442 29.432C132.45 28.784 133.602 28.46 134.898 28.46ZM155.113 28.892V47H152.233V43.724C151.705 44.852 150.901 45.728 149.821 46.352C148.765 46.952 147.529 47.252 146.113 47.252C144.505 47.252 143.089 46.868 141.865 46.1C140.665 45.332 139.729 44.252 139.057 42.86C138.409 41.444 138.085 39.8 138.085 37.928C138.085 36.056 138.421 34.412 139.093 32.996C139.765 31.556 140.701 30.44 141.901 29.648C143.125 28.856 144.529 28.46 146.113 28.46C147.529 28.46 148.765 28.772 149.821 29.396C150.877 30.02 151.681 30.896 152.233 32.024V28.892H155.113ZM146.689 44.84C148.465 44.84 149.833 44.24 150.793 43.04C151.753 41.816 152.233 40.088 152.233 37.856C152.233 35.624 151.753 33.908 150.793 32.708C149.833 31.508 148.465 30.908 146.689 30.908C144.913 30.908 143.521 31.532 142.513 32.78C141.529 34.004 141.037 35.72 141.037 37.928C141.037 40.136 141.529 41.84 142.513 43.04C143.497 44.24 144.889 44.84 146.689 44.84ZM176.699 20.504V47H173.819V43.724C173.291 44.852 172.487 45.728 171.407 46.352C170.351 46.952 169.115 47.252 167.699 47.252C166.115 47.252 164.711 46.856 163.487 46.064C162.287 45.272 161.351 44.168 160.679 42.752C160.007 41.312 159.671 39.656 159.671 37.784C159.671 35.912 159.995 34.28 160.643 32.888C161.315 31.472 162.263 30.38 163.487 29.612C164.711 28.844 166.115 28.46 167.699 28.46C169.115 28.46 170.351 28.772 171.407 29.396C172.463 29.996 173.255 30.848 173.783 31.952V20.504H176.699ZM168.275 44.84C170.051 44.84 171.419 44.24 172.379 43.04C173.339 41.816 173.819 40.088 173.819 37.856C173.819 35.648 173.339 33.944 172.379 32.744C171.419 31.52 170.051 30.908 168.275 30.908C166.499 30.908 165.107 31.508 164.099 32.708C163.115 33.908 162.623 35.6 162.623 37.784C162.623 40.016 163.115 41.756 164.099 43.004C165.107 44.228 166.499 44.84 168.275 44.84ZM198.249 28.892L189.789 48.656C188.901 50.72 187.785 52.232 186.441 53.192C185.097 54.152 183.441 54.812 181.473 55.172L180.861 52.904C182.565 52.52 183.849 52.004 184.713 51.356C185.601 50.732 186.333 49.76 186.909 48.44L187.629 46.82L179.961 28.892H183.021L189.141 43.832L195.333 28.892H198.249ZM217.379 28.892V46.856C217.379 49.544 216.683 51.572 215.291 52.94C213.923 54.332 211.895 55.028 209.207 55.028C206.447 55.028 204.071 54.404 202.079 53.156L202.583 50.78C203.735 51.428 204.815 51.896 205.823 52.184C206.855 52.472 207.983 52.616 209.207 52.616C210.959 52.616 212.279 52.148 213.167 51.212C214.055 50.3 214.499 48.932 214.499 47.108V42.824C213.947 43.976 213.131 44.876 212.051 45.524C210.995 46.148 209.735 46.46 208.271 46.46C206.687 46.46 205.271 46.088 204.023 45.344C202.799 44.6 201.851 43.544 201.179 42.176C200.507 40.808 200.171 39.236 200.171 37.46C200.171 35.684 200.507 34.112 201.179 32.744C201.851 31.376 202.799 30.32 204.023 29.576C205.271 28.832 206.687 28.46 208.271 28.46C209.711 28.46 210.959 28.772 212.015 29.396C213.095 30.02 213.911 30.896 214.463 32.024V28.892H217.379ZM208.847 44.012C210.599 44.012 211.967 43.436 212.951 42.284C213.959 41.108 214.463 39.5 214.463 37.46C214.463 35.42 213.959 33.824 212.951 32.672C211.967 31.496 210.599 30.908 208.847 30.908C207.071 30.908 205.667 31.496 204.635 32.672C203.627 33.824 203.123 35.42 203.123 37.46C203.123 39.5 203.627 41.108 204.635 42.284C205.667 43.436 207.071 44.012 208.847 44.012ZM243.066 28.46C247.074 28.46 249.078 30.848 249.078 35.624V47H246.162V35.768C246.162 34.064 245.862 32.828 245.262 32.06C244.686 31.292 243.738 30.908 242.418 30.908C240.882 30.908 239.682 31.424 238.818 32.456C237.954 33.488 237.522 34.892 237.522 36.668V47H234.606V35.768C234.606 34.088 234.306 32.864 233.706 32.096C233.106 31.304 232.146 30.908 230.826 30.908C229.29 30.908 228.078 31.424 227.19 32.456C226.326 33.488 225.894 34.892 225.894 36.668V47H222.978V33.968C222.978 32.096 222.882 30.404 222.69 28.892H225.462L225.75 32.06C226.254 30.908 226.998 30.02 227.982 29.396C228.99 28.772 230.154 28.46 231.474 28.46C232.914 28.46 234.09 28.748 235.002 29.324C235.914 29.9 236.586 30.788 237.018 31.988C237.57 30.908 238.374 30.056 239.43 29.432C240.51 28.784 241.722 28.46 243.066 28.46ZM270.567 28.892V47H267.687V43.724C267.159 44.852 266.355 45.728 265.275 46.352C264.219 46.952 262.983 47.252 261.567 47.252C259.959 47.252 258.543 46.868 257.319 46.1C256.119 45.332 255.183 44.252 254.511 42.86C253.863 41.444 253.539 39.8 253.539 37.928C253.539 36.056 253.875 34.412 254.547 32.996C255.219 31.556 256.155 30.44 257.355 29.648C258.579 28.856 259.983 28.46 261.567 28.46C262.983 28.46 264.219 28.772 265.275 29.396C266.331 30.02 267.135 30.896 267.687 32.024V28.892H270.567ZM262.143 44.84C263.919 44.84 265.287 44.24 266.247 43.04C267.207 41.816 267.687 40.088 267.687 37.856C267.687 35.624 267.207 33.908 266.247 32.708C265.287 31.508 263.919 30.908 262.143 30.908C260.367 30.908 258.975 31.532 257.967 32.78C256.983 34.004 256.491 35.72 256.491 37.928C256.491 40.136 256.983 41.84 257.967 43.04C258.951 44.24 260.343 44.84 262.143 44.84ZM280.092 31.196V41.096C280.092 42.44 280.368 43.388 280.92 43.94C281.472 44.468 282.252 44.732 283.26 44.732C283.932 44.732 284.58 44.624 285.204 44.408V46.892C284.46 47.132 283.62 47.252 282.684 47.252C280.956 47.252 279.6 46.772 278.616 45.812C277.656 44.828 277.176 43.388 277.176 41.492V31.196H273.648V28.892H277.176V24.248L280.092 23.204V28.892H285.276V31.196H280.092ZM304.913 28.892L296.453 48.656C295.565 50.72 294.449 52.232 293.105 53.192C291.761 54.152 290.105 54.812 288.137 55.172L287.525 52.904C289.229 52.52 290.513 52.004 291.377 51.356C292.265 50.732 292.997 49.76 293.573 48.44L294.293 46.82L286.625 28.892H289.685L295.805 43.832L301.997 28.892H304.913ZM326.549 28.46C328.133 28.46 329.537 28.856 330.761 29.648C331.985 30.44 332.933 31.556 333.605 32.996C334.277 34.412 334.613 36.056 334.613 37.928C334.613 39.8 334.277 41.444 333.605 42.86C332.933 44.252 331.985 45.332 330.761 46.1C329.561 46.868 328.157 47.252 326.549 47.252C325.133 47.252 323.897 46.94 322.841 46.316C321.785 45.692 320.981 44.804 320.429 43.652V54.776H317.513V33.968C317.513 32.096 317.417 30.404 317.225 28.892H319.997L320.285 32.384C320.789 31.136 321.581 30.176 322.661 29.504C323.765 28.808 325.061 28.46 326.549 28.46ZM326.009 44.84C327.785 44.84 329.153 44.24 330.113 43.04C331.097 41.84 331.589 40.136 331.589 37.928C331.589 35.72 331.097 34.004 330.113 32.78C329.129 31.532 327.761 30.908 326.009 30.908C324.209 30.908 322.829 31.508 321.869 32.708C320.909 33.908 320.429 35.624 320.429 37.856C320.429 40.088 320.909 41.816 321.869 43.04C322.829 44.24 324.209 44.84 326.009 44.84ZM347.523 28.46C348.123 28.46 348.675 28.532 349.179 28.676L349.107 31.34C348.555 31.148 347.919 31.052 347.199 31.052C345.447 31.052 344.139 31.604 343.275 32.708C342.435 33.788 342.015 35.108 342.015 36.668V47H339.099V33.968C339.099 32.096 339.003 30.404 338.811 28.892H341.583L341.871 32.24C342.327 31.016 343.059 30.08 344.067 29.432C345.075 28.784 346.227 28.46 347.523 28.46ZM359.278 47.252C357.574 47.252 356.074 46.868 354.778 46.1C353.482 45.332 352.474 44.24 351.754 42.824C351.058 41.408 350.71 39.752 350.71 37.856C350.71 35.96 351.058 34.304 351.754 32.888C352.474 31.472 353.482 30.38 354.778 29.612C356.074 28.844 357.574 28.46 359.278 28.46C360.982 28.46 362.482 28.844 363.778 29.612C365.074 30.38 366.07 31.472 366.766 32.888C367.486 34.304 367.846 35.96 367.846 37.856C367.846 39.752 367.486 41.408 366.766 42.824C366.07 44.24 365.074 45.332 363.778 46.1C362.482 46.868 360.982 47.252 359.278 47.252ZM359.278 44.84C361.078 44.84 362.458 44.252 363.418 43.076C364.378 41.876 364.858 40.136 364.858 37.856C364.858 35.648 364.366 33.944 363.382 32.744C362.398 31.52 361.03 30.908 359.278 30.908C357.502 30.908 356.122 31.52 355.138 32.744C354.154 33.944 353.662 35.648 353.662 37.856C353.662 40.136 354.142 41.876 355.102 43.076C356.086 44.252 357.478 44.84 359.278 44.84ZM388.52 28.892V46.856C388.52 49.544 387.824 51.572 386.432 52.94C385.064 54.332 383.036 55.028 380.348 55.028C377.588 55.028 375.212 54.404 373.22 53.156L373.724 50.78C374.876 51.428 375.956 51.896 376.964 52.184C377.996 52.472 379.124 52.616 380.348 52.616C382.1 52.616 383.42 52.148 384.308 51.212C385.196 50.3 385.64 48.932 385.64 47.108V42.824C385.088 43.976 384.272 44.876 383.192 45.524C382.136 46.148 380.876 46.46 379.412 46.46C377.828 46.46 376.412 46.088 375.164 45.344C373.94 44.6 372.992 43.544 372.32 42.176C371.648 40.808 371.312 39.236 371.312 37.46C371.312 35.684 371.648 34.112 372.32 32.744C372.992 31.376 373.94 30.32 375.164 29.576C376.412 28.832 377.828 28.46 379.412 28.46C380.852 28.46 382.1 28.772 383.156 29.396C384.236 30.02 385.052 30.896 385.604 32.024V28.892H388.52ZM379.988 44.012C381.74 44.012 383.108 43.436 384.092 42.284C385.1 41.108 385.604 39.5 385.604 37.46C385.604 35.42 385.1 33.824 384.092 32.672C383.108 31.496 381.74 30.908 379.988 30.908C378.212 30.908 376.808 31.496 375.776 32.672C374.768 33.824 374.264 35.42 374.264 37.46C374.264 39.5 374.768 41.108 375.776 42.284C376.808 43.436 378.212 44.012 379.988 44.012ZM402.543 28.46C403.143 28.46 403.695 28.532 404.199 28.676L404.127 31.34C403.575 31.148 402.939 31.052 402.219 31.052C400.467 31.052 399.159 31.604 398.295 32.708C397.455 33.788 397.035 35.108 397.035 36.668V47H394.119V33.968C394.119 32.096 394.023 30.404 393.831 28.892H396.603L396.891 32.24C397.347 31.016 398.079 30.08 399.087 29.432C400.095 28.784 401.247 28.46 402.543 28.46ZM422.758 28.892V47H419.878V43.724C419.35 44.852 418.546 45.728 417.466 46.352C416.41 46.952 415.174 47.252 413.758 47.252C412.15 47.252 410.734 46.868 409.51 46.1C408.31 45.332 407.374 44.252 406.702 42.86C406.054 41.444 405.73 39.8 405.73 37.928C405.73 36.056 406.066 34.412 406.738 32.996C407.41 31.556 408.346 30.44 409.546 29.648C410.77 28.856 412.174 28.46 413.758 28.46C415.174 28.46 416.41 28.772 417.466 29.396C418.522 30.02 419.326 30.896 419.878 32.024V28.892H422.758ZM414.334 44.84C416.11 44.84 417.478 44.24 418.438 43.04C419.398 41.816 419.878 40.088 419.878 37.856C419.878 35.624 419.398 33.908 418.438 32.708C417.478 31.508 416.11 30.908 414.334 30.908C412.558 30.908 411.166 31.532 410.158 32.78C409.174 34.004 408.682 35.72 408.682 37.928C408.682 40.136 409.174 41.84 410.158 43.04C411.142 44.24 412.534 44.84 414.334 44.84ZM448.484 28.46C452.492 28.46 454.496 30.848 454.496 35.624V47H451.58V35.768C451.58 34.064 451.28 32.828 450.68 32.06C450.104 31.292 449.156 30.908 447.836 30.908C446.3 30.908 445.1 31.424 444.236 32.456C443.372 33.488 442.94 34.892 442.94 36.668V47H440.024V35.768C440.024 34.088 439.724 32.864 439.124 32.096C438.524 31.304 437.564 30.908 436.244 30.908C434.708 30.908 433.496 31.424 432.608 32.456C431.744 33.488 431.312 34.892 431.312 36.668V47H428.396V33.968C428.396 32.096 428.3 30.404 428.108 28.892H430.88L431.168 32.06C431.672 30.908 432.416 30.02 433.4 29.396C434.408 28.772 435.572 28.46 436.892 28.46C438.332 28.46 439.508 28.748 440.42 29.324C441.332 29.9 442.004 30.788 442.436 31.988C442.988 30.908 443.792 30.056 444.848 29.432C445.928 28.784 447.14 28.46 448.484 28.46ZM467.525 47.252C465.821 47.252 464.321 46.868 463.025 46.1C461.729 45.332 460.721 44.24 460.001 42.824C459.305 41.408 458.957 39.752 458.957 37.856C458.957 35.96 459.305 34.304 460.001 32.888C460.721 31.472 461.729 30.38 463.025 29.612C464.321 28.844 465.821 28.46 467.525 28.46C469.229 28.46 470.729 28.844 472.025 29.612C473.321 30.38 474.317 31.472 475.013 32.888C475.733 34.304 476.093 35.96 476.093 37.856C476.093 39.752 475.733 41.408 475.013 42.824C474.317 44.24 473.321 45.332 472.025 46.1C470.729 46.868 469.229 47.252 467.525 47.252ZM467.525 44.84C469.325 44.84 470.705 44.252 471.665 43.076C472.625 41.876 473.105 40.136 473.105 37.856C473.105 35.648 472.613 33.944 471.629 32.744C470.645 31.52 469.277 30.908 467.525 30.908C465.749 30.908 464.369 31.52 463.385 32.744C462.401 33.944 461.909 35.648 461.909 37.856C461.909 40.136 462.389 41.876 463.349 43.076C464.333 44.252 465.725 44.84 467.525 44.84ZM507.931 28.892L501.235 47H498.427L493.243 32.852L488.095 47H485.287L478.591 28.892H481.651L486.763 43.508L492.055 28.892H494.611L499.831 43.544L505.051 28.892H507.931ZM527.453 28.892V47H524.573V43.724C524.045 44.852 523.241 45.728 522.161 46.352C521.105 46.952 519.869 47.252 518.453 47.252C516.845 47.252 515.429 46.868 514.205 46.1C513.005 45.332 512.069 44.252 511.397 42.86C510.749 41.444 510.425 39.8 510.425 37.928C510.425 36.056 510.761 34.412 511.433 32.996C512.105 31.556 513.041 30.44 514.241 29.648C515.465 28.856 516.869 28.46 518.453 28.46C519.869 28.46 521.105 28.772 522.161 29.396C523.217 30.02 524.021 30.896 524.573 32.024V28.892H527.453ZM519.029 44.84C520.805 44.84 522.173 44.24 523.133 43.04C524.093 41.816 524.573 40.088 524.573 37.856C524.573 35.624 524.093 33.908 523.133 32.708C522.173 31.508 520.805 30.908 519.029 30.908C517.253 30.908 515.861 31.532 514.853 32.78C513.869 34.004 513.377 35.72 513.377 37.928C513.377 40.136 513.869 41.84 514.853 43.04C515.837 44.24 517.229 44.84 519.029 44.84ZM542.127 28.46C546.471 28.46 548.643 30.848 548.643 35.624V47H545.727V35.768C545.727 34.088 545.391 32.864 544.719 32.096C544.047 31.304 542.991 30.908 541.551 30.908C539.871 30.908 538.527 31.424 537.519 32.456C536.511 33.488 536.007 34.88 536.007 36.632V47H533.091V33.968C533.091 32.096 532.995 30.404 532.803 28.892H535.575L535.863 32.132C536.415 30.956 537.243 30.056 538.347 29.432C539.451 28.784 540.711 28.46 542.127 28.46ZM554.15 28.892H557.066V47H554.15V28.892ZM557.426 21.224V24.536H553.862V21.224H557.426ZM578.676 28.892V47H575.796V43.724C575.268 44.852 574.464 45.728 573.384 46.352C572.328 46.952 571.092 47.252 569.676 47.252C568.068 47.252 566.652 46.868 565.428 46.1C564.228 45.332 563.292 44.252 562.62 42.86C561.972 41.444 561.648 39.8 561.648 37.928C561.648 36.056 561.984 34.412 562.656 32.996C563.328 31.556 564.264 30.44 565.464 29.648C566.688 28.856 568.092 28.46 569.676 28.46C571.092 28.46 572.328 28.772 573.384 29.396C574.44 30.02 575.244 30.896 575.796 32.024V28.892H578.676ZM570.252 44.84C572.028 44.84 573.396 44.24 574.356 43.04C575.316 41.816 575.796 40.088 575.796 37.856C575.796 35.624 575.316 33.908 574.356 32.708C573.396 31.508 572.028 30.908 570.252 30.908C568.476 30.908 567.084 31.532 566.076 32.78C565.092 34.004 564.6 35.72 564.6 37.928C564.6 40.136 565.092 41.84 566.076 43.04C567.06 44.24 568.452 44.84 570.252 44.84Z" fill="#F6F6F6"/>
<circle cx="32" cy="32" r="31" stroke="#F8F8F8" stroke-width="2"/>
</svg>
